<?xml version="1.0" encoding="utf-8"?>
<!-- Generator: Adobe Illustrator 14.0.0, SVG Export Plug-In . SVG Version: 6.00 Build 43363)  -->
<!DOCTYPE svg PUBLIC "-//W3C//DTD SVG 1.0//EN" "http://www.w3.org/TR/2001/REC-SVG-20010904/DTD/svg10.dtd">
<svg version="1.0" id="Layer_1" xmlns="http://www.w3.org/2000/svg" xmlns:xlink="http://www.w3.org/1999/xlink" x="0px" y="0px"
	 width="81.897px" height="100px" viewBox="-0.427 0 81.897 100" enable-background="new -0.427 0 81.897 100" xml:space="preserve"
	>
<path d="M50.052,36.609c-6.338,0-11.494,5.157-11.494,11.495c0,6.338,5.156,11.494,11.494,11.494
	c6.339,0,11.495-5.156,11.495-11.494C61.547,41.766,56.391,36.609,50.052,36.609z"/>
<path d="M59.953,5.928v31.015c3.082,2.737,5.028,6.725,5.028,11.162c0,8.232-6.697,14.93-14.93,14.93
	c-8.231,0-14.929-6.697-14.929-14.93c0-4.437,1.947-8.425,5.029-11.162V2.83C25.117,4.753,11.963,16.357,9.029,29.027
	C8.316,32.111,7.507,40.17,7.507,40.17l-7.706,19.452c-0.154,0.347-0.229,0.748-0.229,1.158c0,1.643,1.326,2.977,2.976,2.977h4.958
	v10.334c0,8.062,6.52,14.59,14.573,14.59h5.793V100h21.528h17.928V68.613c8.605-6.766,14.141-17.282,14.141-29.076
	C81.47,24.626,72.656,11.782,59.953,5.928z M18.191,47.54c-2.293,0-4.154-1.859-4.154-4.152c0-2.286,1.862-4.14,4.154-4.14
	c2.273,0,4.137,1.854,4.137,4.14C22.33,45.682,20.464,47.54,18.191,47.54z"/>
<path d="M54.669,0h-9.232c-1.021,0-1.85,0.828-1.85,1.85v0.713v32.085c1.957-0.944,4.15-1.474,6.465-1.474
	c2.315,0,4.509,0.529,6.467,1.474V1.85C56.519,0.828,55.69,0,54.669,0z"/>
</svg>
