<svg xmlns="http://www.w3.org/2000/svg" xmlns:xlink="http://www.w3.org/1999/xlink" version="1.1" id="Layer_1" x="0px" y="0px" width="100px" height="68px" viewBox="0 0 100 68" enable-background="new 0 0 100 68" xml:space="preserve">
<polygon fill="#000000" points="76,36 76,47.665 50.854,62.69 25,47.665 25,36 51.007,48.873 "/>
<path fill="#000000" d="M50.976,45.713l48.625-24.245L50.975,0.945L0.991,21.468L11.9,26.76c-0.248,6.283-0.93,18.536-1.722,22.498  c-0.655,3.277-3.825,7.947-9.762,13.88c-0.228,0.229-0.517,0.567-0.387,0.879c0.136,0.329,0.618,0.329,0.777,0.329  c1.534,0,5.715-1.416,7.888-2.863c0.318-0.213,0.608-0.32,0.862-0.32c0.953,0,1.507,1.569,2.043,3.087  c0.509,1.441,0.989,2.803,1.869,3.243c0.133,0.066,0.27,0.1,0.408,0.1c0.307,0,0.597-0.163,0.881-0.485  c1.62-1.835,2.845-9.15,2.009-15.833c-0.762-6.096-0.379-16.486,0.209-22.052L50.976,45.713z M50.324,11.165  c2.243,0,4.069,1.826,4.069,4.07c0,2.244-1.826,4.069-4.069,4.069s-4.068-1.825-4.068-4.069  C46.256,12.991,48.081,11.165,50.324,11.165z"/>
</svg>