<svg xmlns="http://www.w3.org/2000/svg" xmlns:xlink="http://www.w3.org/1999/xlink" version="1.1" id="Layer_1" x="0px" y="0px" width="100.0px" height="100px" viewBox="0 0 250 250" enable-background="new 0 0 250 250" xml:space="preserve">
<g>
	<polygon points="208.717,104.505 208.717,68.996 182.764,68.996 182.764,78.308 125,20 62.42,83.168 -0.16,146.337 37.072,146.337    62.42,120.75 125,57.582 187.579,120.75 212.928,146.337 250.159,146.337  "/>
	<path d="M125,61.832L62.42,125l-21.138,21.337h0.055V230h167.325v-83.663h0.055L187.579,125L125,61.832z M85.056,193.836H73.264   v-10.667h11.792V193.836z M85.056,180.918H73.264V168h11.792V180.918z M99.1,193.836H87.308v-10.667H99.1V193.836z M99.1,180.918   H87.308V168H99.1V180.918z M179,223.333h-29.333V168H179V223.333z"/>
</g>
</svg>