<svg xmlns="http://www.w3.org/2000/svg" xmlns:xlink="http://www.w3.org/1999/xlink" version="1.1" id="Capa_1" x="0px" y="0px" width="100px" height="100px" viewBox="0 0 100 100" enable-background="new 0 0 100 100" xml:space="preserve">
<g>
	<path d="M47.793,20.574c0.573-3.997,4.229-7.207,8.227-7.207c4.02,0,6.75,3.21,6.188,7.207c-0.58,3.998-4.235,7.207-8.235,7.207   C49.963,27.781,47.221,24.572,47.793,20.574z"/>
	<path d="M62.084,80.797c-2.619,4.35-7.882,5.836-12.121,5.836c-6.855,0-10.291-3.428-9.387-9.721l4.914-35.465   c0.123-0.904-0.562-1.702-1.469-1.702h-5.379c-0.683,0-1.027-0.457-0.922-1.146c0-0.693,0.58-1.15,1.259-1.15h18.535   c0.686,0,1.143,0.457,1.02,1.15l-5.59,40.028c-0.465,3.54,0.457,4.577,2.734,4.577c2.063,0,3.893-1.608,4.93-3.206   c0.324-0.457,0.802-0.688,1.371-0.457C62.323,79.768,62.436,80.34,62.084,80.797z"/>
</g>
</svg>