<svg xmlns="http://www.w3.org/2000/svg" xmlns:xlink="http://www.w3.org/1999/xlink" version="1.1" id="Layer_1" x="0px" y="0px" width="100px" height="100px" viewBox="0 0 100 100" enable-background="new 0 0 100 100" xml:space="preserve">
<g>
	<g>
		<polygon fill="#000000" points="10.886,89.768 24.015,89.768 24.015,40.683 2.226,40.683   "/>
		<path fill="#000000" d="M97.773,48.294c0-5.249-4.198-6.042-4.198-6.042h-27.3c0,0-1.841-2.357-0.266-7.347    c1.574-4.989,1.841-12.336,0.526-15.486c-1.309-3.149-3.675-8.926-9.713-9.187c-3.541,0.542-4.725,3.41-4.725,3.41v11.555    c0,0-11.283,20.47-12.857,20.73c-1.579,0.266-7.864,1.054-7.864,1.054v36.225h1.826c0,0,13.385,6.561,16.007,6.561    c2.628,0,33.078,0,33.078,0s4.724-1.053,4.724-6.299c0-3.41-2.888-5.516-2.888-5.516s7.091-0.523,7.091-6.559    c0-2.479-3.417-4.725-3.417-4.725s6.565-1.314,6.305-6.824c-0.527-3.412-2.366-5.252-2.366-5.252S97.773,53.541,97.773,48.294z"/>
	</g>
</g>
</svg>