<?xml version="1.0" encoding="utf-8"?>
<!-- Generator: Adobe Illustrator 14.0.0, SVG Export Plug-In . SVG Version: 6.00 Build 43363)  -->
<!DOCTYPE svg PUBLIC "-//W3C//DTD SVG 1.0//EN" "http://www.w3.org/TR/2001/REC-SVG-20010904/DTD/svg10.dtd">
<svg version="1.0" id="Layer_1" xmlns="http://www.w3.org/2000/svg" xmlns:xlink="http://www.w3.org/1999/xlink" x="0px" y="0px"
	 width="89.723px" height="100px" viewBox="0 0 89.723 100" enable-background="new 0 0 89.723 100" xml:space="preserve">
<a xlink:href='../../index.php?action=sendCommand&amp;command=pause'>
<polygon points="71.661,52.511 45.419,48.193 49.184,45.512 55.486,46.385 61.78,45.512 "/>
<g>
	<path d="M55.486,2.919c5.259,0,9.524,4.262,9.524,9.528c0,5.263-3.354,9.528-9.524,9.528c-5.263,0-9.532-4.265-9.532-9.528
		C45.954,7.182,50.223,2.919,55.486,2.919z"/>
</g>
<g>
	<path d="M57.856,71.777v23.025c0,2.871,2.333,5.197,5.204,5.197c2.872,0,5.201-2.326,5.201-5.197V71.777
		c0-2.867-2.329-5.2-5.201-5.2C60.189,66.577,57.856,68.91,57.856,71.777z"/>
</g>
<g>
	<path d="M89.723,84.923c0,1.667-1.356,3.02-3.017,3.02h-15.95V72.864h6.898V57.797c0-1.659,1.354-3.013,3.013-3.013h6.039
		c1.66,0,3.017,1.354,3.017,3.013V84.923z"/>
	<path d="M55.368,87.942H24.402c-1.667,0-3.017-1.353-3.017-3.02V57.797c0-1.659,1.35-3.013,3.017-3.013h6.036
		c1.664,0,3.016,1.354,3.016,3.013v15.067h21.914V87.942z"/>
</g>
<g>
	<path d="M39.062,55.409c-0.466,2.833,1.453,5.515,4.286,5.98l22.719,3.744c2.833,0.46,5.511-1.453,5.977-4.289
		c0.466-2.834-1.449-5.515-4.286-5.974L45.04,51.123C42.206,50.661,39.532,52.576,39.062,55.409z"/>
</g>
<path d="M13.442,26.894C6.029,26.894,0,20.865,0,13.448C0,6.031,6.029,0,13.442,0c7.413,0,13.449,6.031,13.449,13.448
	C26.891,20.865,20.854,26.894,13.442,26.894L13.442,26.894z M13.442,23.565c5.577,0,10.122-4.538,10.122-10.121
	c0-5.576-4.545-10.12-10.122-10.12c-5.581,0-10.115,4.544-10.115,10.12C3.327,19.028,7.861,23.565,13.442,23.565L13.442,23.565z"/>
<path d="M13.511,15.223c-0.3,0.138-0.666,0.125-0.966-0.072c-0.252-0.162-0.411-0.417-0.452-0.697L12.079,6.64
	c0-0.56,0.456-1.012,1.011-1.012c0.559,0,1.011,0.452,1.011,1.012l0,0v6.062l5.184-2.441c0.5-0.241,1.108-0.024,1.346,0.48l0,0
	c0.238,0.508,0.021,1.109-0.483,1.347l0,0L13.511,15.223z"/>
<path d="M55.486,29.554l12.351-2.012v8.683c1.968,1.48,6.099,4.586,6.099,4.586c0.586,0.59,0.348,1.263,0.21,1.453
	c-0.349,0.459-0.997,0.552-1.456,0.211l-7.696-5.818c-1.598-1.124-3.8-0.743-4.925,0.85c-1.125,1.595-0.745,3.799,0.85,4.925
	l13.148,9.235c0.61,0.432,1.48,0.724,2.347,0.724l0,0c0.738,0,1.608-0.307,2.254-0.766c1.38-0.98,1.888-2.72,1.418-4.323
	l-4.884-14.429c-1.304-3.585-4.593-7.806-9.531-7.806H45.298c-4.938,0-8.228,4.22-9.532,7.806l-4.883,14.429
	c-0.469,1.603,0.042,3.342,1.422,4.323c0.642,0.459,1.515,0.766,2.25,0.766l0,0c0.87,0,1.739-0.292,2.35-0.724l13.148-9.235
	c1.595-1.126,1.975-3.33,0.85-4.925c-1.129-1.593-3.33-1.974-4.925-0.85l-7.699,5.818c-0.456,0.341-1.104,0.248-1.453-0.211
	c-0.138-0.189-0.38-0.862,0.207-1.453c0,0,4.134-3.106,6.101-4.586v-8.683L55.486,29.554z"/>
</a>
</svg>
