<svg xmlns="http://www.w3.org/2000/svg" xmlns:xlink="http://www.w3.org/1999/xlink" version="1.1" id="Layer_1" x="0px" y="0px" width="100px" height="100px" viewBox="0 0 100 100" enable-background="new 0 0 100 100" xml:space="preserve">
<g>
	<path fill="#000000" d="M11.013,48.743c0-3.944,3.197-6.743,7.14-6.743H80v5.408L93.592,36.05L80,24.254V31H18.153   C8.128,31,0,38.739,0,48.765c0,4.928,1.971,9.229,5.159,12.471l8.648-7.193C12.114,52.765,11.013,51.047,11.013,48.743z"/>
</g>
<g>
	<path fill="#000000" d="M94.84,38.775l-8.647,7.227c1.693,1.277,2.794,2.951,2.794,5.254c0,3.945-3.196,6.744-7.139,6.744H20   v-5.409L6.409,63.95L20,75.746V69h61.848C91.872,69,100,61.26,100,51.234C100,46.307,98.029,42.018,94.84,38.775z"/>
</g>
</svg>