<svg xmlns="http://www.w3.org/2000/svg" xmlns:xlink="http://www.w3.org/1999/xlink" version="1.1" id="Layer_1" x="0px" y="0px" width="54.5px" height="69.332px" viewBox="0 0 54.5 69.332" enable-background="new 0 0 54.5 69.332" xml:space="preserve">
<a xlink:href='../../index.php?action=sendCommand&amp;command=stop'>
<g>
	<path fill="#000000" d="M27.367,43.759c-1.104,0-1.997-0.903-1.992-2.008c0,0,0.959-15.959,2.064-15.954   c1.105,0.004,1.936,15.971,1.936,15.971C29.372,42.538,28.922,43.759,27.367,43.759z"/>
</g>
<path fill="#000000" d="M33.843,18.459c1.613-1.62,2.612-3.853,2.612-6.314c0-4.938-4.018-8.955-8.955-8.955  c-4.938,0-8.955,4.017-8.955,8.955c0,2.461,0.999,4.694,2.612,6.314c-3.37,0.92-6.45,2.55-9.063,4.725l-1.92-1.987l1.438-1.39  c0.794-0.768,0.815-2.034,0.048-2.828s-2.033-0.815-2.828-0.048l-5.752,5.56c-0.794,0.768-0.876,2.098-0.048,2.828  c1.006,0.886,2.439,0.423,2.828,0.048l1.438-1.39l1.946,2.013c-3.649,4.228-5.864,9.728-5.864,15.738  c0,13.3,10.821,24.121,24.121,24.121c13.301,0,24.121-10.821,24.121-24.121C51.621,30.623,44.075,21.252,33.843,18.459z   M20.545,12.146c0-3.835,3.12-6.955,6.955-6.955s6.955,3.12,6.955,6.955c0,2.404-1.227,4.527-3.087,5.776  c-0.615-0.1-1.238-0.172-1.868-0.225v-2.695h2c1.104,0,2-0.896,2-2s-0.896-2-2-2h-8c-1.104,0-2,0.896-2,2s0.896,2,2,2h2v2.695  c-0.63,0.052-1.253,0.125-1.868,0.225C21.772,16.672,20.545,14.55,20.545,12.146z M27.5,61.85c-11.095,0-20.121-9.026-20.121-20.121  c0-11.095,9.026-20.122,20.121-20.122s20.121,9.026,20.121,20.122C47.621,52.824,38.595,61.85,27.5,61.85z"/>
</a>
</svg>
