<?xml version="1.0" encoding="utf-8"?>
<!-- Generator: Adobe Illustrator 15.1.0, SVG Export Plug-In . SVG Version: 6.00 Build 0)  -->
<!DOCTYPE svg PUBLIC "-//W3C//DTD SVG 1.1//EN" "http://www.w3.org/Graphics/SVG/1.1/DTD/svg11.dtd">
<svg version="1.1" id="Layer_1" xmlns="http://www.w3.org/2000/svg" xmlns:xlink="http://www.w3.org/1999/xlink" x="0px" y="0px"
	 width="52px" height="100px" viewBox="0 0 52 100" enable-background="new 0 0 52 100" xml:space="preserve">
<path d="M40,28.108V5c0-2.761-2.238-5-5-5H17c-2.762,0-5,2.239-5,5v23.108C4.791,32.735,0,40.816,0,50
	c0,9.184,4.791,17.266,12,21.892V95c0,2.762,2.238,5,5,5h18c2.762,0,5-2.238,5-5V71.892C47.209,67.266,52,59.184,52,50
	C52,40.816,47.209,32.735,40,28.108z M40,66.958C36.193,70.105,31.314,72,26,72s-10.193-1.895-14-5.042C7.117,62.92,4,56.816,4,50
	c0-6.817,3.117-12.919,8-16.958C15.807,29.894,20.686,28,26,28s10.193,1.894,14,5.042c4.883,4.039,8,10.141,8,16.958
	C48,56.816,44.883,62.92,40,66.958z"/>
<path d="M42,40c0-1.104-0.896-2-2-2c-0.434,0-0.832,0.142-1.16,0.376l-0.002-0.003l-12.701,9.073l-7.808-6.94l-0.005,0.006
	C17.971,40.197,17.51,40,17,40c-1.104,0-2,0.896-2,2c0,0.594,0.265,1.123,0.676,1.489l-0.005,0.006l9,8l0.005-0.006
	C25.029,51.803,25.49,52,26,52c0.434,0,0.832-0.142,1.16-0.376l0.002,0.003l14-10l-0.002-0.003C41.666,41.261,42,40.671,42,40z"/>
</svg>
