<svg xmlns="http://www.w3.org/2000/svg" xmlns:xlink="http://www.w3.org/1999/xlink" version="1.1" id="Ebene_1" x="0px" y="0px" width="90px" height="90px" viewBox="0 0 90 90" enable-background="new 0 0 90 90" xml:space="preserve">
<circle cx="45" cy="31.125" r="8.458"/>
<path d="M69.287,10.21H20.713c-1.105,0-2,0.896-2,2v65.58c0,1.104,0.895,2,2,2h48.574c1.105,0,2-0.896,2-2V12.21  C71.287,11.105,70.393,10.21,69.287,10.21z M23.043,76.942c-0.57,0-1.031-0.461-1.031-1.029c0-0.569,0.461-1.03,1.031-1.03  c0.568,0,1.029,0.461,1.029,1.03C24.072,76.481,23.611,76.942,23.043,76.942z M23.043,15.116c-0.57,0-1.031-0.461-1.031-1.029  c0-0.569,0.461-1.03,1.031-1.03c0.568,0,1.029,0.461,1.029,1.03C24.072,14.655,23.611,15.116,23.043,15.116z M45,65.776  c-3.271,0-5.924-2.652-5.924-5.923c0-3.271,2.652-5.923,5.924-5.923s5.922,2.651,5.922,5.923C50.922,63.124,48.271,65.776,45,65.776  z M45,42.49c-6.277,0-11.365-5.088-11.365-11.365c0-6.276,5.088-11.365,11.365-11.365s11.365,5.089,11.365,11.365  C56.365,37.402,51.277,42.49,45,42.49z M66.957,76.942c-0.568,0-1.029-0.461-1.029-1.029c0-0.569,0.461-1.03,1.029-1.03  s1.031,0.461,1.031,1.03C67.988,76.481,67.525,76.942,66.957,76.942z M66.957,15.116c-0.568,0-1.029-0.461-1.029-1.029  c0-0.569,0.461-1.03,1.029-1.03s1.031,0.461,1.031,1.03C67.988,14.655,67.525,15.116,66.957,15.116z"/>
<circle cx="45" cy="59.854" r="4.408"/>
</svg>