<svg xmlns="http://www.w3.org/2000/svg" xmlns:xlink="http://www.w3.org/1999/xlink" xml:space="preserve" width="55px" height="96px" style="shape-rendering:geometricPrecision; text-rendering:geometricPrecision; image-rendering:optimizeQuality; fill-rule:evenodd; clip-rule:evenodd" viewBox="0 0 3.0364 5.32804">
<a xlink:href='../../index.php?action=sendCommand&amp;command=volume_up'>
 <defs>
  <style type="text/css">
   
    .fil0 {fill:#0A0B0C}
   
  </style>
 </defs>
 <g id="Layer_x0020_1">
  <metadata id="CorelCorpID_0Corel-Layer"/>
  <path class="fil0" d="M6.54623e-005 0l3.03634 0 0 5.32804 -3.03634 0 0 -5.32804zm1.51814 0.328228c0.504845,0 0.914378,0.409336 0.914378,0.914312 0,0.504911 -0.409532,0.914312 -0.914378,0.914312 -0.504911,0 -0.914312,-0.409401 -0.914312,-0.914312 0,-0.504976 0.409401,-0.914312 0.914312,-0.914312zm0 0.159008c0.41706,0 0.75537,0.338113 0.75537,0.755304 0,0.417126 -0.338309,0.755304 -0.75537,0.755304 -0.417126,0 -0.755304,-0.338178 -0.755304,-0.755304 0,-0.417191 0.338178,-0.755304 0.755304,-0.755304zm0 0.457123c0.164638,0 0.298181,0.133347 0.298181,0.298181 0,0.164834 -0.133543,0.298115 -0.298181,0.298115 -0.164769,0 -0.298115,-0.133281 -0.298115,-0.298115 0,-0.164834 0.133347,-0.298181 0.298115,-0.298181zm0 2.41386c0.274353,0 0.496924,0.222375 0.496924,0.496859 0,0.274484 -0.222572,0.496924 -0.496924,0.496924 -0.274484,0 -0.496859,-0.222441 -0.496859,-0.496924 0,-0.274484 0.222375,-0.496859 0.496859,-0.496859zm0 -0.695734c0.65842,0 1.19259,0.534042 1.19259,1.19259 0,0.658551 -0.534173,1.19266 -1.19259,1.19266 -0.658551,0 -1.19259,-0.534107 -1.19259,-1.19266 0,-0.658551 0.534042,-1.19259 1.19259,-1.19259zm0 0.159008c0.570635,0 1.03358,0.462819 1.03358,1.03358 0,0.570831 -0.46295,1.03358 -1.03358,1.03358 -0.570766,0 -1.03358,-0.462753 -1.03358,-1.03358 0,-0.570766 0.462819,-1.03358 1.03358,-1.03358zm0 -0.238479c0.70228,0 1.27213,0.569522 1.27213,1.27206 0,0.702607 -0.569849,1.27213 -1.27213,1.27213 -0.702542,0 -1.27206,-0.569522 -1.27206,-1.27213 0,-0.702542 0.569522,-1.27206 1.27206,-1.27206zm0 -2.33432c0.548705,0 0.993849,0.445013 0.993849,0.993849 0,0.548836 -0.445144,0.993849 -0.993849,0.993849 -0.548836,0 -0.993783,-0.445013 -0.993783,-0.993849 0,-0.548836 0.444947,-0.993849 0.993783,-0.993849z"/>
 </g>
 </a>
</svg>
