<svg xmlns="http://www.w3.org/2000/svg" xmlns:xlink="http://www.w3.org/1999/xlink" version="1.1" id="Layer_1" x="0px" y="0px" width="100px" height="74px" viewBox="0 0 100 74" enable-background="new 0 0 100 74" xml:space="preserve">
<path fill="#000000" d="M90.221,40.059l-3.367-3.367l7.399-7.398l-7.399-7.4l3.367-3.367l9.082,9.083c0.93,0.93,0.93,2.438,0,3.367  L90.221,40.059z M13.148,36.69l-7.4-7.398l7.4-7.399l-3.367-3.367l-9.084,9.082C0.251,28.054,0,28.66,0,29.292  c0,0.631,0.251,1.237,0.697,1.683l9.084,9.082L13.148,36.69z M70.703,49.996C65.173,55.525,57.82,58.569,50,58.569  s-15.172-3.044-20.703-8.573c-0.277-0.277-0.516-0.578-0.781-0.865l-3.794,3.795l0.014,0.006c0.264,0.282,0.498,0.58,0.772,0.854  c1.522,1.522,3.175,2.869,4.911,4.065L16.143,72.125c-1.24,1.24-2.864,1.86-4.489,1.86s-3.251-0.62-4.489-1.86  c-2.48-2.479-2.48-6.499,0-8.978l14.284-14.283l3.863-3.862c-7.205-11.321-5.887-26.541,3.985-36.412  C34.826,3.06,42.18,0.015,50,0.015S65.173,3.06,70.703,8.589C82.118,20.005,82.118,38.579,70.703,49.996z M65.092,14.201  c-4.031-4.03-9.391-6.25-15.092-6.25c-5.7,0-11.06,2.22-15.092,6.25c-8.319,8.32-8.319,21.86,0.001,30.183  c4.03,4.028,9.391,6.248,15.09,6.248c5.701,0,11.061-2.22,15.092-6.248C73.413,36.062,73.413,22.522,65.092,14.201z"/>
</svg>